<svg xmlns="http://www.w3.org/2000/svg" viewBox="0 0 48 48">
  <defs>
    <linearGradient id="a" x1="25.1" x2="24.5" y1="4" y2="43.4" gradientUnits="userSpaceOnUse">
      <stop offset="0" stop-color="#2d2b36" id="gradient-start"/>
      <stop offset="1" stop-color="#655764"/>
    </linearGradient>
  </defs>

  <style>
  @media (prefers-color-scheme: dark) {
    #gradient-start {
      stop-color: #a9a6ad;
    }
  }
  </style>

  <path fill="url(#a)" stroke="#f7ba84" stroke-width=".3" d="M12.9 35.5q-2.9 0-5-1.4-2-1.4-3.2-4-1.1-2.4-1.1-6 0-3.5 1.1-6 1.1-2.6 3.2-3.9Q10 13 13 13q2 0 3.5.6 1.4.6 2.3 1.4V6l3.5-1.7V35h-3.5v-1.8q-.8 1-2.3 1.6-1.4.7-3.5.7zm.4-3.2q1.8 0 3.2-.8 1.4-.8 2.2-2.2V18.9q-.6-1-2-2-1.2-.9-3.4-.9-3 0-4.6 2.1-1.6 2.1-1.6 6 0 2.4.8 4.2.7 1.9 2 3 1.5 1 3.4 1zm12.4 11.3V13.4h3.5v1.8q1-.9 2.3-1.6 1.3-.7 3.5-.7 3 0 5 1.4 2.2 1.3 3.3 3.9 1.1 2.5 1.1 6 0 3.6-1.2 6.1-1.2 2.5-3.3 3.9-2 1.3-4.8 1.3-2.3 0-3.7-.8Q30 34 29.2 33v9zm9-11.3q3 0 4.6-2 1.6-2.2 1.6-6.1 0-3.7-1.7-6-1.6-2.2-4.6-2.2-1.8 0-3.2.8-1.4.8-2.2 2.3v10.2q1 1.3 2.3 2.2 1.3.8 3.2.8z"/>
</svg>
